<svg xmlns="http://www.w3.org/2000/svg" viewBox="0 0 100 100" width="100" height="100">
  <defs><clipPath id="c"><circle cx="50" cy="50" r="50"/></clipPath></defs>
  <g clip-path="url(#c)"><rect width="100" height="100" fill="#FE0000"/>
       <rect width="50" height="50" fill="#000095"/>
       <path d="M25.00,10.00 L27.07,17.27 L32.50,12.01 L30.66,19.34 L37.99,17.50 L32.73,22.93 L40.00,25.00 L32.73,27.07 L37.99,32.50 L30.66,30.66 L32.50,37.99 L27.07,32.73 L25.00,40.00 L22.93,32.73 L17.50,37.99 L19.34,30.66 L12.01,32.50 L17.27,27.07 L10.00,25.00 L17.27,22.93 L12.01,17.50 L19.34,19.34 L17.50,12.01 L22.93,17.27 Z" fill="#fff"/>
       <circle cx="25" cy="25" r="6.4" fill="#000095"/>
       <circle cx="25" cy="25" r="3.4" fill="#fff"/></g>
</svg>
